# xmcd
#
# Track frame offsets:
#	182
#	12815
#	23985
#	43145
#	57092
#	69192
#	83817
#	98982
#	113900
#	125725
#	141997
#	158277
#	174077
#	190027
#
# Disc length: 2696
#
# Revision: 4
# Processed by: cddbd v1.5.1PL0 Copyright (c) Steve Scherf et al.
# Submitted via: CDex 1.50
# Normalized: r3:DSETVAR1,TDELIM( - )
#
DISCID=ac0a860e
DTITLE=Various Artist - Country Gold Volume 4
DYEAR=1992
DGENRE=Country
TTITLE0=Patsy Cline - I Fall To Pieces
TTITLE1=Roger Miller - King Of The Road
TTITLE2=Bobby Gentry - Ode To Billy Joe
TTITLE3=Glen Campbell - Wichita Lineman
TTITLE4=Tammy Wynette - Stand By Your Man
TTITLE5=Asleep At The Wheel - The Letter Taht Johnny Walker Read
TTITLE6=Jesse Colter - I'm Not Lisa
TTITLE7=Michael Martin Murphy - Wildfire
TTITLE8=Crystal Gayle - Don't It Make My Brown Eyes Blue
TTITLE9=Charlie Daniels Band - The Devil Went Down To Georgia
TTITLE10=Johnny Lee - Lookin' For Love
TTITLE11=Ronnie Milsap - He Got You
TTITLE12=Willie Nelson - Always On My Mind
TTITLE13=Patsy Cline - Crazy
EXTD=YEAR: 1992
EXTT0=
EXTT1=
EXTT2=
EXTT3=
EXTT4=
EXTT5=
EXTT6=
EXTT7=
EXTT8=
EXTT9=
EXTT10=
EXTT11=
EXTT12=
EXTT13=
PLAYORDER=
